<?xml version="1.0"?><svg width="428.409" height="249.61" xmlns="http://www.w3.org/2000/svg" version="1.1">

 <metadata id="metadata7">image/svg+xml</metadata>
 <g>
  <title>Layer 1</title>
  <g id="layer1">
   <path d="m100.820709,185.615997c0,0 1.30899,6.703003 1.514999,10.101013c0.366989,6.052002 -1.729004,13.96698 -0.505005,18.182983c1.223999,4.216003 2.272995,7.828979 2.272995,7.828979c0.25,0.859009 0.829994,-0.007996 2.021011,1.767029c1.18998,1.776001 2.068993,6.440979 3.28299,9.596985c0,0 0.399002,2.489014 1.262009,3.28302c1.548996,1.424988 6.060989,1.768005 6.060989,1.768005l4.040993,1.766968l13.637016,1.011047c1.201996,0.088989 2.110992,1.230957 3.283005,1.514954c1.882996,0.457031 5.807999,0.252014 5.807999,0.252014c1.054001,0.046021 1.834991,1.987976 2.778,1.515991c1.063995,-0.533997 -0.403,-2.765991 0.50499,-3.536011c2.889999,-2.450989 8.352005,2.551025 11.363998,0.253052c0.552002,-0.421997 0.674011,-1.347046 0.505005,-2.020996c0,0 -1.878998,-2.958008 -1.009995,-4.040039c1.899002,-2.364014 9.468002,3.26001 9.091995,0.252014c0,0 -0.112,-2.741028 -0.505005,-4.039978c-0.490997,-1.622009 -3.246994,-3.160034 -2.272995,-4.546021c0.828003,-1.179016 3.464996,1.684021 4.292999,0.505005c1.190002,-1.695007 -2.778,-5.55603 -2.778,-5.55603l-2.020004,-3.029968l12.878998,1.01001c0.639008,0.049988 0.681,-1.132019 0.758011,-1.768005c0.060989,-0.507996 -0.253006,-1.515015 -0.253006,-1.515015c-0.371994,-2.236023 5.123001,2.718994 6.56601,1.768005c1.442993,-0.952026 0.727997,-2.367004 0.50499,-3.536011c-0.126999,-0.666992 -1.375992,-1.195984 -1.009995,-1.768005c1.048004,-1.636963 4.43399,1.880005 5.807999,0.505005l1.011002,-1.01001l-2.526001,-4.544983l1.514999,-0.252991l-1.009995,-1.515015c0,0 -11.359009,-6.132019 -14.647003,-11.36499c-0.641006,-1.02002 -0.757996,-3.535034 -0.757996,-3.535034c-0.571014,-2.665955 -1.344009,-5.355957 -1.262009,-8.080994c0.083008,-2.755981 1.768005,-8.080994 1.768005,-8.080994c0,0 8.031998,-1.244995 11.869003,-2.526001c2.464996,-0.822998 7.070999,-3.282959 7.070999,-3.282959c0,0 -1.514999,6.81897 -1.768005,8.333984c-0.251999,1.515015 0.024002,7.305969 0.757996,10.859009c0.667999,3.232971 1.85701,6.367004 3.283005,9.343994c1.240997,2.591003 4.544998,7.323975 4.544998,7.323975l3.535995,12.121033c0.896011,3.07196 3.097,5.618958 4.292999,8.586975c1.056,2.617004 2.526001,8.080994 2.526001,8.080994c0.682007,2.182983 -0.18399,4.734009 0.757004,6.817993c0.514999,1.140991 2.526001,2.778015 2.526001,2.778015c1.397995,1.539001 3.852997,1.565002 5.807999,2.27301c1.751999,0.63501 3.481995,1.372009 5.303009,1.768005c2.316986,0.503967 7.070984,0.757996 7.070984,0.757996c1.667999,0.177979 3.141022,1.258972 4.798004,1.515015c1.498016,0.230957 4.54599,0 4.54599,0c0.607025,0 1.313019,-0.438049 1.515015,-1.01001c0.471008,-1.330994 -2.095001,-2.902039 -1.261993,-4.041016c0.540985,-0.741028 4.130981,0.322998 6.061005,1.01001c1.277985,0.455994 2.185974,2.169006 3.534973,2.020996c1.244019,-0.137024 3.529022,-1.525024 2.778015,-2.526001c0,0 -0.85199,-0.599976 -0.757996,-1.01001c0.143005,-0.620972 2.652985,0.97699 4.040985,1.01001c0.857986,0.020996 2.078995,0.227966 2.525009,-0.505005c0.638977,-1.046021 -2.156998,-3.10498 -1.01001,-3.534973c0,0 3.096985,-0.430054 4.040985,-1.516052c0.509003,-0.585999 0.77002,-1.542969 0.505005,-2.272949c0,0 -0.743988,-1.829041 -1.009979,-2.777039c-0.232025,-0.826965 0.071991,-1.890991 -0.505005,-2.526001l-2.526001,-2.778015c-2.24498,-2.469971 -5.887985,-3.282959 -8.332993,-5.555969c-0.703003,-0.653015 -1.240997,-1.471008 -1.768005,-2.271973c-1.056,-1.606018 -2.777985,-5.051025 -2.777985,-5.051025c-0.987,-1.794983 -0.331024,-4.129028 -1.01001,-6.060974c-0.799988,-2.276001 -3.536011,-6.314026 -3.536011,-6.314026c-1.75,-3.124023 -4.179993,-5.942993 -5.302979,-9.343994c-1.303009,-3.945007 -1.515015,-12.374023 -1.515015,-12.374023c0.174988,-2.125977 5.092987,-6.570984 8.838989,-7.575989c2.902008,-0.778992 8.838013,1.768005 8.838013,1.768005c2.729004,0.546021 5.662979,-1.284973 8.334,-0.505005c2.197998,0.642029 5.556,4.039978 5.556,4.039978c1.291992,0.940002 2.950989,1.606995 4.54599,1.516052c2.781982,-0.160034 5.721985,-4.167053 7.575989,-3.536011c1.076019,0.365967 0.056,4.971985 0.757019,7.323975c0.839996,2.814026 4.040985,7.828003 4.040985,7.828003l3.28299,3.788025c1.006012,1.161011 0.28302,3.084961 0.758026,4.545959c0.582001,1.790039 2.524994,5.051025 2.524994,5.051025c0.925995,1.85199 2.269989,3.547974 2.777985,5.555969c1.281006,5.062012 0.505005,15.657043 0.505005,15.657043c0.03299,1.01001 -0.437988,2.119995 0,3.029968c0.93399,1.944031 5.050995,4.041016 5.050995,4.041016c2.854004,2.28302 7.011017,2.119995 10.606018,2.778015c3.914001,0.71698 11.869995,1.263 11.869995,1.263c0,0 3.014008,0.630981 4.544983,0.756958c0.588013,0.049011 1.768005,0 1.768005,0c0.757996,0 0,-1.514954 0,-2.272949c0,-0.58905 0,-1.767029 0,-1.767029c0,-1.596985 2.957001,1.35199 4.546021,1.515015c1.432983,0.146973 4.292999,-0.505005 4.292999,-0.505005c0.792999,-0.093018 0.095978,-1.825012 0.757996,-2.27301c1.186981,-0.804016 4.292999,0.252991 4.292999,0.252991c0,0 2.462006,0.723999 3.28299,0c0.509003,-0.450012 -0.42099,-1.937012 0.252014,-2.020996l4.040985,-0.505005c1.121002,-0.140015 -0.505005,-2.019958 -1.514984,-3.029968c-1.01001,-1.01001 -4.690002,-4.237 -7.071014,-6.314026c-2.251007,-1.961975 -4.665009,-2.067993 -6.819,-5.807983c-2.153992,-3.73999 -1.653992,-11.190979 -3.029999,-16.66803c-1.402008,-5.575989 -3.777985,-10.870972 -5.303986,-16.414978c-0.802002,-2.914001 -2.02002,-8.838013 -2.02002,-8.838013c-0.807007,-3.529968 2.296021,-6.870972 3.28302,-10.35498c0.850983,-3.005005 1.187988,-6.161987 2.27298,-9.091003l2.524994,-6.817993c0.707001,-1.90802 3.651001,-1.811035 5.556,-2.526001c2.469025,-0.926025 5.298004,-0.945007 7.576019,-2.27301c2.417999,-1.408997 3.522003,-4.632019 6.061005,-5.807983c2.22699,-1.031006 4.934998,-0.196045 7.323975,-0.757996c2.800018,-0.65802 8.081024,-3.030029 8.081024,-3.030029c3.983002,-1.494019 7.43399,-4.179993 11.363983,-5.807983c2.779022,-1.151978 8.585999,-2.778015 8.585999,-2.778015c4.02301,-1.302002 8.393005,-1.359985 12.375,-2.778015c2.837006,-1.010986 8.080994,-4.040955 8.080994,-4.040955c3.223022,-1.611023 6.155029,-3.907043 8.586029,-6.56604c2.044983,-1.776978 2.102997,-5.984009 4.292999,-6.565979c0.764984,-0.203003 0.252991,2.525024 0.252991,2.525024c0,0 2.345001,-1.142029 3.28299,-2.02002c2.335999,-2.187012 5.556,-7.828003 5.556,-7.828003c1.466003,-2.065979 2.27301,-6.314026 2.02002,-7.324036c-0.252014,-1.009949 0.609985,-6.35498 -1.01001,-8.838989l-3.787994,-5.807983c-1.921021,-2.945984 -4.858002,-5.190002 -7.82901,-7.070984c-1.848999,-1.171997 -6.061005,-2.526001 -6.061005,-2.526001c-2.585999,-1.078003 -2.640991,-5.015015 -4.544983,-7.070984c-2.654999,-2.865051 -9.344025,-7.071045 -9.344025,-7.071045c0,0 -2.013,5.071045 -3.787994,7.071045c-2.046997,2.305969 -7.575989,5.302979 -7.575989,5.302979l-4.041016,-1.01001l-7.323975,-2.525024l7.575989,-6.565979c0,0 7.436005,-4.839996 11.112,-7.324005c3.30899,-2.234985 6.569,-4.540985 9.848999,-6.817993c0,0 6.118988,-4.127991 9.091003,-6.313995c1.546997,-1.136993 3.261993,-2.108002 4.54599,-3.535004l4.546021,-5.050995l2.27298,-1.768005l1.261993,-2.27301l-0.756989,-1.514984l-3.031006,0c0,0 -5.399994,3.807983 -8.333008,5.303009c-3.063995,1.561981 -6.319,2.75 -9.596985,3.789001c-2.725006,0.862976 -7.071014,2.019989 -8.334015,2.019989c-1.261993,0 -16.919983,5.808014 -16.919983,5.808014l-8.585999,5.050995l9.596008,-9.091003l11.616974,-8.082001l7.82901,-6.313019l6.56601,-7.828979l5.807983,-7.071014l0.758026,-2.777985l-1.263,-1.01001l-2.27301,1.768005c0,0 -7.526001,5.268005 -11.615997,7.324005c-3.548004,1.781982 -11.112,4.292999 -11.112,4.292999c-4.987,1.925995 -9.622009,4.661987 -14.39502,7.070984c-4.570984,2.307007 -9.516998,4.029999 -13.636993,7.071014c0,0 -7.182007,5.074982 -10.605988,7.828003c-2.790009,2.243988 -6.170013,4.044983 -8.082001,7.071991l-3.029999,4.798004l-8.585999,0l-9.848999,-5.80899l-12.122009,-8.333008c0,0 -4.964996,-5.798004 -8.334015,-7.324005c-5.970978,-2.199005 -10.646973,0.454987 -15.656982,3.536011c-2.59201,1.440979 -7.324005,5.049988 -7.324005,5.049988c-2.15799,1.489014 -4.346008,3.127991 -5.807983,5.303986c-0.951019,1.414001 -1.768005,4.798004 -1.768005,4.798004c0,0 -13.132004,-5.894989 -19.697983,-8.838989c-11.572998,-5.188995 -23.574005,-9.010986 -35.608017,-12.878998c-23.40799,-7.524994 -49.968994,-5.992004 -71.215988,6.56601c-17.683014,10.450989 -37.981003,26.721985 -45.962006,37.880005c-6.944,9.709961 -12.826004,20.380981 -17.677002,31.315002c-2.850006,6.42395 -5.378998,13.07196 -6.819,19.950989c0,0 -2.849106,14.518982 -4.545506,21.718018c-1.217598,5.166992 -2.711395,10.264954 -4.040596,15.404968c0,0 -2.2808,9.833984 -3.788101,14.647034c-1.233902,3.938965 -2.165596,8.078979 -4.293098,11.616943c-1.628502,2.707031 -3.919205,5.009033 -6.313499,7.071045c-2.211403,1.903992 -4.565704,3.842957 -7.323601,4.797974c0,0 -4.290504,1.841003 -6.566002,2.27301c-1.986599,0.377014 -4.042297,0.370972 -6.060898,0.252014c0,0 -2.884399,0.01001 -4.293201,-0.252014c-7.945702,-1.479004 -13.109398,-12.86499 -19.192799,-12.122009c-2.301903,0.281006 -0.456001,8.177002 1.515198,10.606018l10.8591,13.38501c1.899002,2.341003 4.755001,3.725952 7.323601,5.302979c2.983898,1.832031 5.977299,3.836975 9.343899,4.799011c0,0 6.973301,2.464966 10.606602,3.029968c2.746201,0.427002 5.562599,0.463013 8.333801,0.253052c3.243195,-0.247009 6.477402,-0.846008 9.596397,-1.768005c3.582802,-1.059998 7.064396,-2.522034 10.353703,-4.29303c0,0 6.755005,-3.223022 9.848999,-5.304016c3.623001,-2.434998 7.095001,-5.169006 10.102005,-8.332947c2.527992,-2.661011 4.58699,-6.188049 6.565994,-8.83905c1.979004,-2.651001 5.303009,-7.070984 5.303009,-7.070984z" fill="#007f7f" id="path2830"/>
  </g>
 </g>
</svg>